<?xml version="1.0" standalone="no"?>
<!DOCTYPE svg PUBLIC "-//W3C//DTD SVG 1.1//EN" "http://www.w3.org/Graphics/SVG/1.1/DTD/svg11.dtd">
<svg width="100%" height="100%" viewBox="0 0 200 200" version="1.1" xmlns="http://www.w3.org/2000/svg" xmlns:xlink="http://www.w3.org/1999/xlink" xml:space="preserve" style="fill-rule:evenodd;clip-rule:evenodd;stroke-linejoin:round;stroke-miterlimit:1.41421;">
    <g transform="matrix(0.971429,0,0,1.00592,1.4,-4.11243)">
        <path d="M189,61.25C189,37.932 169.396,19 145.25,19L57.75,19C33.604,19 14,37.932 14,61.25L14,145.75C14,169.068 33.604,188 57.75,188L145.25,188C169.396,188 189,169.068 189,145.75L189,61.25Z" style="fill:rgb(235,235,235);"/>
    </g>
    <g>
        <g>
            <g transform="matrix(1.03594,0,0,1,-1.39271,0)">
                <path d="M157,100.5C157,98.016 155.054,96 152.656,96L43.094,96C40.696,96 38.75,98.016 38.75,100.5C38.75,102.984 40.696,105 43.094,105L152.656,105C155.054,105 157,102.984 157,100.5Z" style="fill:rgb(154,154,154);"/>
            </g>
            <g transform="matrix(1,0,0,1.14286,91.25,30.2857)">
                <ellipse cx="54" cy="61" rx="16" ry="14" style="fill:rgb(114,114,114);"/>
            </g>
        </g>
        <g>
            <g transform="matrix(1.03594,0,0,1,-1.39271,-42.75)">
                <path d="M157,100.5C157,98.016 155.054,96 152.656,96L43.094,96C40.696,96 38.75,98.016 38.75,100.5C38.75,102.984 40.696,105 43.094,105L152.656,105C155.054,105 157,102.984 157,100.5Z" style="fill:rgb(154,154,154);"/>
            </g>
            <g transform="matrix(1,0,0,1.14286,0.75,-11.9643)">
                <ellipse cx="54" cy="61" rx="16" ry="14" style="fill:rgb(114,114,114);"/>
            </g>
        </g>
        <g>
            <g transform="matrix(1.03594,0,0,1,-1.39271,41.75)">
                <path d="M157,100.5C157,98.016 155.054,96 152.656,96L43.094,96C40.696,96 38.75,98.016 38.75,100.5C38.75,102.984 40.696,105 43.094,105L152.656,105C155.054,105 157,102.984 157,100.5Z" style="fill:rgb(154,154,154);"/>
            </g>
            <g transform="matrix(1,0,0,1.14286,0.75,72.5357)">
                <ellipse cx="54" cy="61" rx="16" ry="14" style="fill:rgb(114,114,114);"/>
            </g>
        </g>
    </g>
</svg>
